# xmcd
# Track frame offsets:
# 150
# 11969
# 24964
# 35605
# 56146
# 72485
# 89059
# 103104
# 117867
# 131868
# 148550
# 160617
# 175605
# 189554
# 208431
#
# Disc length: 2942 seconds
# Revision: 1
# Processed by: cddbd v1.5.2PL0 Copyright (c) Steve Scherf et al.
# Submitted via: VisiTrax 2.11.2.271 - For more info visit www.synapsa.com
#
DISCID=e00b7c0f
DTITLE=Slim Dusty - The Man Who Is Australia Disc 2
DYEAR=2000
DGENRE=Australian Country
TTITLE0=Duncan (Version 2)
TTITLE1=Kilometres Are Still Miles To Me
TTITLE2=Where I'd Sooner Be
TTITLE3=Logan
TTITLE4=To Whom It May Concern
TTITLE5=When The Rain Tumbles Down In July
TTITLE6=Larrikins Landing
TTITLE7=The Lights On The Hill
TTITLE8=Charleville
TTITLE9=Mad Joe The Fisherman
TTITLE10=Another Night In Broome
TTITLE11=Morning Comes Early
TTITLE12=I Need To Find A Place
TTITLE13=Mitchell Grass
TTITLE14=Leaving Only Dust
EXTD=Ramblin' Shoes Volume 2 1980 - 2000 EMI Music Australia
EXTT0=
EXTT1=
EXTT2=
EXTT3=
EXTT4=
EXTT5=
EXTT6=
EXTT7=
EXTT8=
EXTT9=
EXTT10=
EXTT11=
EXTT12=
EXTT13=
EXTT14=
PLAYORDER=
